<svg height="24" width="24" viewBox="0 0 247 247" fill="none" xmlns="http://www.w3.org/2000/svg">
<g clip-path="url(#clip0_1_2)">
<rect width="247" height="247" fill="#000000"/>
<path d="M-2.13636 93H-8.13636L25.4545 -0.0909119H32L65.5909 93H59.5909L28.9545 7.22727H28.5L-2.13636 93ZM6.36364 57.9545H51.0909V63.2273H6.36364V57.9545ZM80.1818 93V23.1818H88.0455V33.9091H88.6364C90.0303 30.3939 92.4545 27.5606 95.9091 25.4091C99.3939 23.2273 103.333 22.1364 107.727 22.1364C108.394 22.1364 109.136 22.1515 109.955 22.1818C110.773 22.2121 111.455 22.2424 112 22.2727V30.5C111.636 30.4394 111 30.3485 110.091 30.2273C109.182 30.1061 108.197 30.0455 107.136 30.0455C103.5 30.0455 100.258 30.8182 97.4091 32.3636C94.5909 33.8788 92.3636 35.9848 90.7273 38.6818C89.0909 41.3788 88.2727 44.4545 88.2727 47.9091V93H80.1818ZM150.955 94.4545C144.712 94.4545 139.273 92.8939 134.636 89.7727C130.03 86.6515 126.455 82.3788 123.909 76.9545C121.364 71.5303 120.091 65.3485 120.091 58.4091C120.091 51.4091 121.379 45.1818 123.955 39.7273C126.561 34.2727 130.167 30 134.773 26.9091C139.379 23.7879 144.727 22.2273 150.818 22.2273C155.485 22.2273 159.712 23.1364 163.5 24.9545C167.288 26.7424 170.409 29.2727 172.864 32.5455C175.348 35.7879 176.909 39.5758 177.545 43.9091H169.364C168.515 39.9697 166.47 36.6061 163.227 33.8182C160.015 31 155.924 29.5909 150.955 29.5909C146.5 29.5909 142.561 30.803 139.136 33.2273C135.712 35.6212 133.03 38.9697 131.091 43.2727C129.182 47.5455 128.227 52.5 128.227 58.1364C128.227 63.803 129.167 68.8182 131.045 73.1818C132.924 77.5152 135.561 80.9091 138.955 83.3636C142.379 85.8182 146.379 87.0455 150.955 87.0455C154.045 87.0455 156.864 86.4697 159.409 85.3182C161.985 84.1364 164.136 82.4697 165.864 80.3182C167.621 78.1667 168.803 75.6061 169.409 72.6364H177.591C176.985 76.8485 175.485 80.6061 173.091 83.9091C170.727 87.1818 167.652 89.7576 163.864 91.6364C160.106 93.5152 155.803 94.4545 150.955 94.4545ZM203.023 49.3636V93H194.932V-0.0909119H203.023V34.1364H203.75C205.386 30.5303 207.917 27.6515 211.341 25.5C214.795 23.3485 219.159 22.2727 224.432 22.2727C229.159 22.2727 233.311 23.2424 236.886 25.1818C240.462 27.1212 243.25 29.9848 245.25 33.7727C247.25 37.5606 248.25 42.2273 248.25 47.7727V93H240.114V48.2727C240.114 42.5151 238.508 37.9848 235.295 34.6818C232.114 31.3485 227.811 29.6818 222.386 29.6818C218.659 29.6818 215.341 30.4697 212.432 32.0455C209.523 33.6212 207.22 35.8939 205.523 38.8636C203.856 41.803 203.023 45.303 203.023 49.3636ZM-1.22727 221V151.182H6.90909V221H-1.22727ZM2.90909 139.182C1.24242 139.182 -0.181818 138.621 -1.36364 137.5C-2.54545 136.348 -3.13636 134.97 -3.13636 133.364C-3.13636 131.758 -2.54545 130.394 -1.36364 129.273C-0.181818 128.121 1.24242 127.545 2.90909 127.545C4.57576 127.545 6 128.121 7.18182 129.273C8.36364 130.394 8.95455 131.758 8.95455 133.364C8.95455 134.97 8.36364 136.348 7.18182 137.5C6 138.621 4.57576 139.182 2.90909 139.182ZM82.3523 151.182L56.8523 221H48.2159L22.7159 151.182H31.4886L52.2159 210.318H52.8523L73.5795 151.182H82.3523ZM120.227 222.455C113.924 222.455 108.697 220.894 104.545 217.773C100.394 214.652 97.5 210.379 95.8636 204.955C94.2273 199.53 93.9848 193.348 95.1364 186.409C96.2879 179.439 98.5909 173.227 102.045 167.773C105.5 162.318 109.727 158.015 114.727 154.864C119.727 151.712 125.121 150.136 130.909 150.136C134.818 150.136 138.379 150.924 141.591 152.5C144.833 154.076 147.561 156.333 149.773 159.273C151.985 162.182 153.515 165.712 154.364 169.864C155.212 174.015 155.212 178.682 154.364 183.864L153.727 187.318H98.4545L99.3182 182.273H149C149.848 177.242 149.606 172.697 148.273 168.636C146.939 164.545 144.727 161.303 141.636 158.909C138.576 156.515 134.818 155.318 130.364 155.318C125.818 155.318 121.485 156.636 117.364 159.273C113.273 161.879 109.758 165.364 106.818 169.727C103.909 174.091 101.97 178.894 101 184.136L100.455 186.955C99.4848 192.955 99.6061 198.242 100.818 202.818C102.061 207.364 104.364 210.924 107.727 213.5C111.091 216.045 115.485 217.318 120.909 217.318C124.697 217.318 128.061 216.682 131 215.409C133.97 214.106 136.485 212.53 138.545 210.682C140.636 208.833 142.273 207.045 143.455 205.318L148.045 207.364C146.652 209.697 144.652 212.03 142.045 214.364C139.439 216.667 136.303 218.591 132.636 220.136C128.97 221.682 124.833 222.455 120.227 222.455Z" fill="#FFFFFF"/>
<path d="M92.8513 187.872L93.0559 187.872L93.0582 188.929L92.6491 188.93C90.115 188.946 87.9835 188.553 86.2544 187.75C84.5367 186.936 83.2387 185.729 82.3602 184.128C81.4816 182.516 81.0398 180.523 81.0346 178.148L81.0289 175.557C81.024 173.307 81.4062 171.386 82.1755 169.793C82.9447 168.189 84.0556 166.965 85.5084 166.121C86.961 165.266 88.7101 164.836 90.7555 164.831C92.7328 164.827 94.4665 165.181 95.9567 165.894C97.4469 166.607 98.631 167.615 99.5088 168.92C100.387 170.214 100.884 171.752 101.002 173.536L99.9109 173.539C99.7922 171.209 98.9075 169.365 97.2568 168.005C95.6061 166.633 93.4398 165.951 90.758 165.956C88.8944 165.96 87.3156 166.333 86.0218 167.075C84.7393 167.816 83.7644 168.903 83.0971 170.337C82.4411 171.759 82.1154 173.498 82.1198 175.555L82.1255 178.146C82.1303 180.35 82.5263 182.173 83.3136 183.615C84.1008 185.056 85.285 186.133 86.8661 186.846C88.4585 187.547 90.4536 187.889 92.8513 187.872ZM92.1964 200.215L92.1695 187.874L93.2604 187.871L93.2873 200.212L92.1964 200.215ZM141.504 165.595C140.978 166.892 140.406 168.621 139.977 169.822C138.164 175.01 135.3 182.073 131.231 187.265C126.923 192.795 120.071 198.138 113.165 200.985L109.797 197.536C116.992 195.025 123.605 190.162 127.961 184.729C132.365 179.151 135.612 171.272 136.941 164.405L141.504 165.595ZM164.61 190.511C163.803 190.513 163.07 190.321 162.41 189.936C161.75 189.54 161.226 189.013 160.838 188.355C160.45 187.685 160.25 186.952 160.237 186.157C160.235 185.35 160.427 184.617 160.812 183.957C161.197 183.297 161.718 182.773 162.376 182.385C163.046 181.986 163.784 181.786 164.591 181.784C165.386 181.782 166.114 181.979 166.774 182.376C167.445 182.761 167.981 183.282 168.38 183.94C168.779 184.599 168.974 185.331 168.964 186.138C168.966 186.933 168.769 187.667 168.372 188.338C167.976 188.998 167.449 189.528 166.791 189.927C166.132 190.315 165.406 190.509 164.61 190.511ZM193.09 192.458C194.342 194.12 195.465 195.285 196.458 195.955C197.484 196.625 198.268 196.959 198.812 196.958C199.388 196.957 199.9 196.908 200.348 196.811C200.796 196.714 201.211 196.601 201.595 196.472L201.603 199.832C201.251 200.025 200.771 200.17 200.163 200.267C199.588 200.396 199.012 200.461 198.436 200.463C197.764 200.464 197.028 200.322 196.227 200.036C195.426 199.781 194.545 199.271 193.584 198.505C192.622 197.707 191.531 196.542 190.312 195.008C189.163 196.483 188.094 197.621 187.103 198.423C186.145 199.226 185.25 199.772 184.419 200.061C183.62 200.351 182.852 200.497 182.116 200.498C181.54 200.5 180.948 200.437 180.34 200.31C179.763 200.215 179.283 200.073 178.899 199.881L178.891 196.521C179.083 196.585 179.452 196.68 179.996 196.807C180.54 196.934 181.036 196.997 181.484 196.996C182.252 196.994 183.116 196.672 184.074 196.03C185.033 195.356 186.15 194.17 187.426 192.471C185.759 190.714 184.395 188.957 183.335 187.2C182.307 185.442 181.791 183.683 181.787 181.923C181.784 180.387 182.133 179.026 182.834 177.841C183.536 176.623 184.51 175.661 185.756 174.954C187.035 174.248 188.538 173.892 190.266 173.888C191.994 173.885 193.483 174.233 194.732 174.935C196.014 175.636 196.992 176.594 197.666 177.808C198.373 178.991 198.728 180.35 198.731 181.886C198.734 183.102 198.465 184.335 197.923 185.584C197.382 186.801 196.681 187.987 195.819 189.14C194.99 190.294 194.08 191.4 193.09 192.458ZM215.844 190.399C215.038 190.401 214.304 190.209 213.644 189.824C212.984 189.428 212.46 188.901 212.073 188.243C211.685 187.573 211.484 186.841 211.471 186.045C211.469 185.238 211.661 184.505 212.046 183.845C212.431 183.185 212.952 182.661 213.611 182.273C214.28 181.874 215.018 181.674 215.825 181.672C216.621 181.67 217.348 181.868 218.008 182.264C218.68 182.649 219.215 183.17 219.614 183.828C220.013 184.487 220.208 185.219 220.198 186.026C220.2 186.822 220.003 187.555 219.607 188.226C219.21 188.886 218.683 189.416 218.025 189.815C217.367 190.203 216.64 190.398 215.844 190.399ZM239.361 187.552L239.565 187.552C241.975 187.558 243.968 187.207 245.546 186.499C247.124 185.78 248.304 184.698 249.084 183.253C249.865 181.808 250.253 179.983 250.249 177.779L250.243 175.188C250.239 173.131 249.9 171.393 249.226 169.974C248.564 168.544 247.584 167.461 246.287 166.725C245.001 165.989 243.427 165.623 241.563 165.627C238.881 165.633 236.718 166.325 235.073 167.704C233.44 169.071 232.563 170.92 232.443 173.249L231.352 173.252C231.462 171.467 231.953 169.927 232.825 168.629C233.697 167.32 234.877 166.306 236.364 165.587C237.863 164.868 239.595 164.506 241.561 164.502C243.606 164.498 245.357 164.92 246.813 165.769C248.27 166.607 249.386 167.826 250.162 169.427C250.938 171.016 251.329 172.935 251.334 175.185L251.34 177.776C251.345 180.151 250.912 182.147 250.04 183.762C249.169 185.366 247.876 186.579 246.162 187.401C244.448 188.212 242.318 188.614 239.772 188.608L239.363 188.609L239.361 187.552ZM240.247 187.55L240.274 199.891L239.183 199.894L239.156 187.553L240.247 187.55ZM291.831 165.267C291.306 166.564 290.734 168.293 290.305 169.494C288.492 174.682 285.627 181.744 281.559 186.937C277.251 192.467 270.398 197.81 263.493 200.657L260.125 197.208C267.32 194.696 273.933 189.834 278.289 184.4C282.693 178.823 285.94 170.944 287.269 164.077L291.831 165.267Z" fill="#ffffff"/>
</g>
<defs>
<clipPath id="clip0_1_2">
<rect width="247" height="247" fill="#000000"/>
</clipPath>
</defs>
</svg>
